<svg xmlns="http://www.w3.org/2000/svg" width="32" height="32" viewBox="0 0 32 32">
  <defs>
    <linearGradient id="favicon-gradient" x1="0%" y1="0%" x2="100%" y2="100%">
      <stop offset="0%" stop-color="#6200ea" />
      <stop offset="100%" stop-color="#bb86fc" />
    </linearGradient>
    <linearGradient id="circuit-gradient" x1="0%" y1="0%" x2="100%" y2="0%">
      <stop offset="0%" stop-color="#6200ea" />
      <stop offset="100%" stop-color="#bb86fc" />
    </linearGradient>
  </defs>
  <g>
    <!-- Circuit board background -->
    <rect x="4" y="4" width="24" height="24" rx="2" fill="#1e1e1e" stroke="url(#circuit-gradient)" stroke-width="1" />
    
    <!-- Circuit lines -->
    <path d="M8,8 H16 V16 H24 V24" stroke="url(#circuit-gradient)" stroke-width="1.5" fill="none" />
    <path d="M8,16 H12 V20 H20 V12 H24" stroke="url(#circuit-gradient)" stroke-width="1.5" fill="none" />
    
    <!-- Circuit nodes -->
    <circle cx="8" cy="8" r="1.5" fill="url(#favicon-gradient)" />
    <circle cx="16" cy="8" r="1.5" fill="url(#favicon-gradient)" />
    <circle cx="16" cy="16" r="1.5" fill="url(#favicon-gradient)" />
    <circle cx="24" cy="16" r="1.5" fill="url(#favicon-gradient)" />
    <circle cx="24" cy="24" r="1.5" fill="url(#favicon-gradient)" />
    <circle cx="8" cy="16" r="1.5" fill="url(#favicon-gradient)" />
    <circle cx="12" cy="16" r="1.5" fill="url(#favicon-gradient)" />
    <circle cx="12" cy="20" r="1.5" fill="url(#favicon-gradient)" />
    <circle cx="20" cy="20" r="1.5" fill="url(#favicon-gradient)" />
    <circle cx="20" cy="12" r="1.5" fill="url(#favicon-gradient)" />
    <circle cx="24" cy="12" r="1.5" fill="url(#favicon-gradient)" />
    
    <!-- Data visualization element -->
    <path d="M10,26 L14,22 L18,24 L22,20" stroke="url(#favicon-gradient)" stroke-width="2" fill="none" stroke-linecap="round" stroke-linejoin="round" />
  </g>
</svg> 